Genre:Comedy
Language:English  http://www.imdb.com/title/tt1486190/
Source:BluRay.x264-Felony
Subtitles:Romana


Format : MPEG-4
Format profile : Base Media
Codec ID : isom
File size : 1.73 GiB
Duration : 1h 51mn
Overall bit rate : 2 221 Kbps


Video
Format settings, CABAC : Yes
Format settings, ReFrames : 3 frames
Codec ID : avc1
Codec ID/Info : Advanced Video Coding
Duration : 1h 51mn
Bit rate mode : Variable
Bit rate : 1 791 Kbps
Maximum bit rate : 9 365 Kbps
Width : 1 280 pixels
Height : 528 pixels
Display aspect ratio : 2.40:1
Frame rate mode : Constant
Frame rate : 23.976 fps
Color space : YUV
Chroma subsampling : 4:2:0
Bit depth : 8 bits
Scan type : Progressive
Bits/(Pixel*Frame) : 0.111
Stream size : 1.38 GiB (80%)
Writing library : x264


Audio
ID : 2
Format : AAC
Format/Info : Advanced Audio Codec
Format version : Version 4
Format profile : LC
Format settings, SBR : No
Codec ID : 40
Duration : 1h 51mn
Bit rate mode : Variable
Bit rate : 444 Kbps
Maximum bit rate : 544 Kbps
Channel(s) : 6 channels
Channel positions : Front: L C R, Side: L R, LFE
Sampling rate : 48.0 KHz
Stream size : 354 MiB (20%)



Plot:
A young newspaper writer returns to her hometown in the English countryside, where her childhood home is being prepped for sale
